<mxfile host="app.diagrams.net" agent="Mozilla/5.0 (Windows NT 10.0; Win64; x64) AppleWebKit/537.36 (KHTML, like Gecko) Chrome/129.0.0.0 Safari/537.36" version="24.7.17">
  <diagram name="Page-1" id="sZoFIEgM7Jxu8_BMBN_G">
    <mxGraphModel grid="1" page="1" gridSize="10" guides="1" tooltips="1" connect="1" arrows="1" fold="1" pageScale="1" pageWidth="850" pageHeight="1100" math="0" shadow="0">
      <root>
        <mxCell id="0" />
        <mxCell id="1" parent="0" />
        <mxCell id="PJ_9yeh5474Z2OklxT-o-1" value="Mengisi Formulir Pendaftaran" style="rounded=1;whiteSpace=wrap;html=1;" vertex="1" parent="1">
          <mxGeometry x="115" y="120" width="170" height="40" as="geometry" />
        </mxCell>
        <mxCell id="PJ_9yeh5474Z2OklxT-o-2" value="Submit Pendaftaran" style="rounded=1;whiteSpace=wrap;html=1;" vertex="1" parent="1">
          <mxGeometry x="140" y="190" width="120" height="40" as="geometry" />
        </mxCell>
        <mxCell id="PJ_9yeh5474Z2OklxT-o-3" value="" style="endArrow=classic;html=1;rounded=0;exitX=0.5;exitY=1;exitDx=0;exitDy=0;entryX=0.5;entryY=0;entryDx=0;entryDy=0;" edge="1" parent="1" source="PJ_9yeh5474Z2OklxT-o-1" target="PJ_9yeh5474Z2OklxT-o-2">
          <mxGeometry width="50" height="50" relative="1" as="geometry">
            <mxPoint x="180" y="230" as="sourcePoint" />
            <mxPoint x="230" y="180" as="targetPoint" />
          </mxGeometry>
        </mxCell>
        <mxCell id="PJ_9yeh5474Z2OklxT-o-4" value="" style="ellipse;whiteSpace=wrap;html=1;aspect=fixed;fillColor=#000000;" vertex="1" parent="1">
          <mxGeometry x="190" y="70" width="20" height="20" as="geometry" />
        </mxCell>
        <mxCell id="PJ_9yeh5474Z2OklxT-o-5" value="" style="endArrow=classic;html=1;rounded=0;exitX=0.5;exitY=1;exitDx=0;exitDy=0;entryX=0.5;entryY=0;entryDx=0;entryDy=0;" edge="1" parent="1" source="PJ_9yeh5474Z2OklxT-o-4" target="PJ_9yeh5474Z2OklxT-o-1">
          <mxGeometry width="50" height="50" relative="1" as="geometry">
            <mxPoint x="180" y="230" as="sourcePoint" />
            <mxPoint x="230" y="180" as="targetPoint" />
          </mxGeometry>
        </mxCell>
        <mxCell id="PJ_9yeh5474Z2OklxT-o-6" value="Konfirmasi Data Pendaftaran" style="rounded=1;whiteSpace=wrap;html=1;" vertex="1" parent="1">
          <mxGeometry x="480" y="280" width="190" height="40" as="geometry" />
        </mxCell>
        <mxCell id="PJ_9yeh5474Z2OklxT-o-7" value="Verifikasi Pendaftaran" style="rounded=1;whiteSpace=wrap;html=1;" vertex="1" parent="1">
          <mxGeometry x="980" y="370" width="150" height="30" as="geometry" />
        </mxCell>
        <mxCell id="PJ_9yeh5474Z2OklxT-o-8" value="Pendaftaran Valid" style="rounded=1;whiteSpace=wrap;html=1;" vertex="1" parent="1">
          <mxGeometry x="990" y="430" width="130" height="30" as="geometry" />
        </mxCell>
        <mxCell id="PJ_9yeh5474Z2OklxT-o-9" value="Memberikan Konfirmasi Pendaftaran" style="rounded=1;whiteSpace=wrap;html=1;" vertex="1" parent="1">
          <mxGeometry x="810" y="510" width="210" height="30" as="geometry" />
        </mxCell>
        <mxCell id="PJ_9yeh5474Z2OklxT-o-10" value="" style="endArrow=classic;html=1;rounded=0;entryX=0.5;entryY=0;entryDx=0;entryDy=0;exitX=0.5;exitY=1;exitDx=0;exitDy=0;" edge="1" parent="1" source="PJ_9yeh5474Z2OklxT-o-7" target="PJ_9yeh5474Z2OklxT-o-8">
          <mxGeometry width="50" height="50" relative="1" as="geometry">
            <mxPoint x="950" y="390" as="sourcePoint" />
            <mxPoint x="1000" y="340" as="targetPoint" />
          </mxGeometry>
        </mxCell>
        <mxCell id="PJ_9yeh5474Z2OklxT-o-12" value="" style="endArrow=classic;html=1;rounded=0;entryX=0.476;entryY=0;entryDx=0;entryDy=0;entryPerimeter=0;" edge="1" parent="1" target="PJ_9yeh5474Z2OklxT-o-9">
          <mxGeometry width="50" height="50" relative="1" as="geometry">
            <mxPoint x="990" y="450" as="sourcePoint" />
            <mxPoint x="910" y="500" as="targetPoint" />
            <Array as="points">
              <mxPoint x="910" y="450" />
            </Array>
          </mxGeometry>
        </mxCell>
        <mxCell id="PJ_9yeh5474Z2OklxT-o-14" value="Ya" style="text;html=1;align=center;verticalAlign=middle;resizable=0;points=[];autosize=1;strokeColor=none;fillColor=none;" vertex="1" parent="1">
          <mxGeometry x="955" y="430" width="40" height="30" as="geometry" />
        </mxCell>
        <mxCell id="PJ_9yeh5474Z2OklxT-o-15" value="" style="endArrow=classic;html=1;rounded=0;" edge="1" parent="1">
          <mxGeometry width="50" height="50" relative="1" as="geometry">
            <mxPoint x="1120" y="450" as="sourcePoint" />
            <mxPoint x="280" y="510" as="targetPoint" />
            <Array as="points">
              <mxPoint x="1150" y="450" />
              <mxPoint x="1150" y="490" />
              <mxPoint x="280" y="490" />
            </Array>
          </mxGeometry>
        </mxCell>
        <mxCell id="PJ_9yeh5474Z2OklxT-o-16" value="Memberikan Pesan Kesalahan" style="rounded=1;whiteSpace=wrap;html=1;" vertex="1" parent="1">
          <mxGeometry x="190" y="510" width="180" height="30" as="geometry" />
        </mxCell>
        <mxCell id="PJ_9yeh5474Z2OklxT-o-17" value="Tidak" style="text;html=1;align=center;verticalAlign=middle;resizable=0;points=[];autosize=1;strokeColor=none;fillColor=none;" vertex="1" parent="1">
          <mxGeometry x="1110" y="430" width="50" height="30" as="geometry" />
        </mxCell>
        <mxCell id="PJ_9yeh5474Z2OklxT-o-20" value="Menerima Pesan Kesalahan" style="rounded=1;whiteSpace=wrap;html=1;" vertex="1" parent="1">
          <mxGeometry x="190" y="580" width="180" height="30" as="geometry" />
        </mxCell>
        <mxCell id="PJ_9yeh5474Z2OklxT-o-21" value="Menerima Konfirmasi Pendaftaran" style="rounded=1;whiteSpace=wrap;html=1;" vertex="1" parent="1">
          <mxGeometry x="-70" y="580" width="200" height="30" as="geometry" />
        </mxCell>
        <mxCell id="PJ_9yeh5474Z2OklxT-o-22" value="Melakukan Pembayaran" style="rounded=1;whiteSpace=wrap;html=1;" vertex="1" parent="1">
          <mxGeometry x="-50" y="640" width="160" height="30" as="geometry" />
        </mxCell>
        <mxCell id="PJ_9yeh5474Z2OklxT-o-23" value="" style="endArrow=classic;html=1;rounded=0;exitX=0.476;exitY=1.016;exitDx=0;exitDy=0;exitPerimeter=0;entryX=0.5;entryY=0;entryDx=0;entryDy=0;" edge="1" parent="1" source="PJ_9yeh5474Z2OklxT-o-9" target="PJ_9yeh5474Z2OklxT-o-21">
          <mxGeometry width="50" height="50" relative="1" as="geometry">
            <mxPoint x="710" y="540" as="sourcePoint" />
            <mxPoint x="40" y="560" as="targetPoint" />
            <Array as="points">
              <mxPoint x="910" y="560" />
              <mxPoint x="30" y="560" />
            </Array>
          </mxGeometry>
        </mxCell>
        <mxCell id="PJ_9yeh5474Z2OklxT-o-24" value="" style="endArrow=classic;html=1;rounded=0;exitX=0.5;exitY=1;exitDx=0;exitDy=0;entryX=0.5;entryY=0;entryDx=0;entryDy=0;" edge="1" parent="1" source="PJ_9yeh5474Z2OklxT-o-16" target="PJ_9yeh5474Z2OklxT-o-20">
          <mxGeometry width="50" height="50" relative="1" as="geometry">
            <mxPoint x="270" y="540" as="sourcePoint" />
            <mxPoint x="320" y="490" as="targetPoint" />
          </mxGeometry>
        </mxCell>
        <mxCell id="PJ_9yeh5474Z2OklxT-o-25" value="" style="endArrow=classic;html=1;rounded=0;entryX=0.5;entryY=0;entryDx=0;entryDy=0;exitX=0.5;exitY=1;exitDx=0;exitDy=0;" edge="1" parent="1" source="PJ_9yeh5474Z2OklxT-o-21" target="PJ_9yeh5474Z2OklxT-o-22">
          <mxGeometry width="50" height="50" relative="1" as="geometry">
            <mxPoint x="10" y="580" as="sourcePoint" />
            <mxPoint x="60" y="530" as="targetPoint" />
          </mxGeometry>
        </mxCell>
        <mxCell id="PJ_9yeh5474Z2OklxT-o-26" value="" style="rhombus;whiteSpace=wrap;html=1;" vertex="1" parent="1">
          <mxGeometry x="1100" y="680" width="20" height="20" as="geometry" />
        </mxCell>
        <mxCell id="PJ_9yeh5474Z2OklxT-o-27" value="" style="endArrow=classic;html=1;rounded=0;exitX=0.5;exitY=1;exitDx=0;exitDy=0;entryX=1;entryY=0.5;entryDx=0;entryDy=0;" edge="1" parent="1" source="PJ_9yeh5474Z2OklxT-o-20" target="PJ_9yeh5474Z2OklxT-o-26">
          <mxGeometry width="50" height="50" relative="1" as="geometry">
            <mxPoint x="360" y="640" as="sourcePoint" />
            <mxPoint x="1141.367437900641" y="690" as="targetPoint" />
            <Array as="points">
              <mxPoint x="280" y="670" />
              <mxPoint x="1140" y="670" />
              <mxPoint x="1140" y="690" />
            </Array>
          </mxGeometry>
        </mxCell>
        <mxCell id="PJ_9yeh5474Z2OklxT-o-28" value="" style="endArrow=classic;html=1;rounded=0;exitX=0.5;exitY=1;exitDx=0;exitDy=0;entryX=0;entryY=0.5;entryDx=0;entryDy=0;" edge="1" parent="1" source="PJ_9yeh5474Z2OklxT-o-22" target="PJ_9yeh5474Z2OklxT-o-26">
          <mxGeometry width="50" height="50" relative="1" as="geometry">
            <mxPoint x="250" y="650" as="sourcePoint" />
            <mxPoint x="130" y="870" as="targetPoint" />
            <Array as="points">
              <mxPoint x="30" y="690" />
            </Array>
          </mxGeometry>
        </mxCell>
        <mxCell id="PJ_9yeh5474Z2OklxT-o-29" value="Konfirmasi Pembayaran" style="rounded=1;whiteSpace=wrap;html=1;" vertex="1" parent="1">
          <mxGeometry x="1220" y="760" width="150" height="30" as="geometry" />
        </mxCell>
        <mxCell id="PJ_9yeh5474Z2OklxT-o-30" value="" style="endArrow=classic;html=1;rounded=0;entryX=0.5;entryY=0;entryDx=0;entryDy=0;exitX=0.5;exitY=1;exitDx=0;exitDy=0;" edge="1" parent="1" source="PJ_9yeh5474Z2OklxT-o-26" target="PJ_9yeh5474Z2OklxT-o-29">
          <mxGeometry width="50" height="50" relative="1" as="geometry">
            <mxPoint x="1100" y="650" as="sourcePoint" />
            <mxPoint x="1150" y="600" as="targetPoint" />
            <Array as="points">
              <mxPoint x="1110" y="740" />
              <mxPoint x="1295" y="740" />
            </Array>
          </mxGeometry>
        </mxCell>
        <mxCell id="PJ_9yeh5474Z2OklxT-o-31" value="Menerima Konfirmasi Pendaftaran" style="rounded=1;whiteSpace=wrap;html=1;" vertex="1" parent="1">
          <mxGeometry x="80" y="840" width="200" height="30" as="geometry" />
        </mxCell>
        <mxCell id="PJ_9yeh5474Z2OklxT-o-32" value="" style="endArrow=classic;html=1;rounded=0;exitX=0.5;exitY=1;exitDx=0;exitDy=0;entryX=0.5;entryY=0;entryDx=0;entryDy=0;" edge="1" parent="1" source="PJ_9yeh5474Z2OklxT-o-29" target="PJ_9yeh5474Z2OklxT-o-31">
          <mxGeometry width="50" height="50" relative="1" as="geometry">
            <mxPoint x="1300" y="810" as="sourcePoint" />
            <mxPoint x="160" y="820" as="targetPoint" />
            <Array as="points">
              <mxPoint x="1295" y="820" />
              <mxPoint x="180" y="820" />
            </Array>
          </mxGeometry>
        </mxCell>
        <mxCell id="PJ_9yeh5474Z2OklxT-o-34" value="" style="ellipse;whiteSpace=wrap;html=1;aspect=fixed;" vertex="1" parent="1">
          <mxGeometry x="165" y="920" width="30" height="30" as="geometry" />
        </mxCell>
        <mxCell id="PJ_9yeh5474Z2OklxT-o-35" value="" style="ellipse;whiteSpace=wrap;html=1;aspect=fixed;fillColor=#000000;" vertex="1" parent="1">
          <mxGeometry x="170" y="925" width="20" height="20" as="geometry" />
        </mxCell>
        <mxCell id="PJ_9yeh5474Z2OklxT-o-36" value="" style="endArrow=classic;html=1;rounded=0;exitX=0.5;exitY=1;exitDx=0;exitDy=0;" edge="1" parent="1" source="PJ_9yeh5474Z2OklxT-o-31">
          <mxGeometry width="50" height="50" relative="1" as="geometry">
            <mxPoint x="160" y="940" as="sourcePoint" />
            <mxPoint x="180" y="920" as="targetPoint" />
          </mxGeometry>
        </mxCell>
        <mxCell id="PJ_9yeh5474Z2OklxT-o-37" value="" style="endArrow=classic;html=1;rounded=0;exitX=0.5;exitY=1;exitDx=0;exitDy=0;entryX=0.5;entryY=0;entryDx=0;entryDy=0;" edge="1" parent="1" source="PJ_9yeh5474Z2OklxT-o-2" target="PJ_9yeh5474Z2OklxT-o-6">
          <mxGeometry width="50" height="50" relative="1" as="geometry">
            <mxPoint x="350" y="350" as="sourcePoint" />
            <mxPoint x="591.6666666666666" y="260" as="targetPoint" />
            <Array as="points">
              <mxPoint x="200" y="260" />
              <mxPoint x="575" y="260" />
            </Array>
          </mxGeometry>
        </mxCell>
        <mxCell id="PJ_9yeh5474Z2OklxT-o-38" value="" style="endArrow=classic;html=1;rounded=0;exitX=0.5;exitY=1;exitDx=0;exitDy=0;entryX=0.5;entryY=0;entryDx=0;entryDy=0;" edge="1" parent="1" source="PJ_9yeh5474Z2OklxT-o-6" target="PJ_9yeh5474Z2OklxT-o-7">
          <mxGeometry width="50" height="50" relative="1" as="geometry">
            <mxPoint x="800" y="260" as="sourcePoint" />
            <mxPoint x="1050" y="370" as="targetPoint" />
            <Array as="points">
              <mxPoint x="575" y="350" />
              <mxPoint x="1055" y="350" />
            </Array>
          </mxGeometry>
        </mxCell>
        <mxCell id="PJ_9yeh5474Z2OklxT-o-39" value="" style="endArrow=none;html=1;rounded=0;" edge="1" parent="1">
          <mxGeometry width="50" height="50" relative="1" as="geometry">
            <mxPoint x="-120" y="1000" as="sourcePoint" />
            <mxPoint x="-120" y="40" as="targetPoint" />
          </mxGeometry>
        </mxCell>
        <mxCell id="PJ_9yeh5474Z2OklxT-o-40" value="&lt;b&gt;Mahasiswa&lt;/b&gt;" style="text;html=1;align=center;verticalAlign=middle;resizable=0;points=[];autosize=1;strokeColor=none;fillColor=none;" vertex="1" parent="1">
          <mxGeometry x="155" y="48" width="90" height="30" as="geometry" />
        </mxCell>
        <mxCell id="PJ_9yeh5474Z2OklxT-o-41" value="" style="endArrow=none;html=1;rounded=0;" edge="1" parent="1">
          <mxGeometry width="50" height="50" relative="1" as="geometry">
            <mxPoint x="400" y="1000" as="sourcePoint" />
            <mxPoint x="400" y="40" as="targetPoint" />
          </mxGeometry>
        </mxCell>
        <mxCell id="PJ_9yeh5474Z2OklxT-o-42" value="" style="endArrow=none;html=1;rounded=0;" edge="1" parent="1">
          <mxGeometry width="50" height="50" relative="1" as="geometry">
            <mxPoint x="760" y="1003.0769230769231" as="sourcePoint" />
            <mxPoint x="760" y="40" as="targetPoint" />
          </mxGeometry>
        </mxCell>
        <mxCell id="PJ_9yeh5474Z2OklxT-o-43" value="&lt;b&gt;&lt;font style=&quot;font-size: 14px;&quot;&gt;Sistem Pendaftaran&lt;/font&gt;&lt;/b&gt;" style="text;html=1;align=center;verticalAlign=middle;resizable=0;points=[];autosize=1;strokeColor=none;fillColor=none;" vertex="1" parent="1">
          <mxGeometry x="505" y="48" width="150" height="30" as="geometry" />
        </mxCell>
        <mxCell id="PJ_9yeh5474Z2OklxT-o-44" value="" style="endArrow=none;html=1;rounded=0;" edge="1" parent="1">
          <mxGeometry width="50" height="50" relative="1" as="geometry">
            <mxPoint x="1200" y="1001.0256723257212" as="sourcePoint" />
            <mxPoint x="1200" y="40" as="targetPoint" />
          </mxGeometry>
        </mxCell>
        <mxCell id="PJ_9yeh5474Z2OklxT-o-45" value="&lt;font style=&quot;font-size: 14px;&quot;&gt;&lt;b&gt;Staf Registrar&lt;/b&gt;&lt;/font&gt;" style="text;html=1;align=center;verticalAlign=middle;resizable=0;points=[];autosize=1;strokeColor=none;fillColor=none;" vertex="1" parent="1">
          <mxGeometry x="920" y="48" width="120" height="30" as="geometry" />
        </mxCell>
        <mxCell id="PJ_9yeh5474Z2OklxT-o-46" value="" style="endArrow=none;html=1;rounded=0;" edge="1" parent="1">
          <mxGeometry width="50" height="50" relative="1" as="geometry">
            <mxPoint x="1400" y="991.0256723257212" as="sourcePoint" />
            <mxPoint x="1400" y="40" as="targetPoint" />
          </mxGeometry>
        </mxCell>
        <mxCell id="PJ_9yeh5474Z2OklxT-o-47" value="&lt;font style=&quot;font-size: 14px;&quot;&gt;&lt;b&gt;Sistem Pembayaran&lt;/b&gt;&lt;/font&gt;" style="text;html=1;align=center;verticalAlign=middle;resizable=0;points=[];autosize=1;strokeColor=none;fillColor=none;" vertex="1" parent="1">
          <mxGeometry x="1220" y="48" width="160" height="30" as="geometry" />
        </mxCell>
      </root>
    </mxGraphModel>
  </diagram>
</mxfile>
